REM MD5 af12fbac4ed679e93b5f9566e3742434
FILE "Official U.S. PlayStation Magazine Demo Disc 36 (USA).bin" BINARY
  TRACK 01 MODE2/2352
    INDEX 01 00:00:00
  TRACK 02 AUDIO
    INDEX 00 28:15:54
    INDEX 01 28:17:54
  TRACK 03 AUDIO
    INDEX 00 30:03:09
    INDEX 01 30:05:09
  TRACK 04 AUDIO
    INDEX 00 32:15:71
    INDEX 01 32:17:71
REM LEADOUT 32:23:67
